# xmcd
#
# Track frame offsets:
#	150
#	15276
#	41082
#	55497
#	76493
#	99538
#	121057
#	136493
#	149617
#	170952
#	186507
#	200773
#	217653
#	235577
#	257656
#	274293
#
# Disc length: 3908 seconds
#
# Revision: 0
# Processed by: cddbd v1.5.2PL0 Copyright (c) Steve Scherf et al.
# Submitted via: dBpowerAMP V4.0
#
DISCID=ef0f4210
DTITLE=Johnny Hallyday - Anthologie CD 2
DYEAR=1900
DGENRE=
TTITLE0=Que je t'aime
TTITLE1=Je suis né dans la rue
TTITLE2=La fille aux cheveux clairs
TTITLE3=Oh ma jolie Sarah
TTITLE4=La musique que j'aime
TTITLE5=Requiem pour un fou
TTITLE6=Joue pas de rock'n'roll pour moi
TTITLE7=Gabrielle
TTITLE8=J'ai oublié de vivre
TTITLE9=Elle m'oublie
TTITLE10=Le bon temps du rock'n'roll
TTITLE11=Ma gueule
TTITLE12=Drôle de métier
TTITLE13=Le chanteur abandonné
TTITLE14=Rock'n'roll attitude
TTITLE15=Quelque chose de Tennessee
EXTD=
EXTT0=
EXTT1=
EXTT2=
EXTT3=
EXTT4=
EXTT5=
EXTT6=
EXTT7=
EXTT8=
EXTT9=
EXTT10=
EXTT11=
EXTT12=
EXTT13=
EXTT14=
EXTT15=
PLAYORDER=
